<?xml version="1.0" standalone="no"?><!DOCTYPE svg PUBLIC "-//W3C//DTD SVG 1.1//EN" "http://www.w3.org/Graphics/SVG/1.1/DTD/svg11.dtd"><svg t="1634719523724" class="icon" viewBox="0 0 1024 1024" version="1.1" xmlns="http://www.w3.org/2000/svg" p-id="4061" width="30" height="30" xmlns:xlink="http://www.w3.org/1999/xlink"><defs><style type="text/css"></style></defs><path d="M745.691429 571.062857a25.270857 25.270857 0 0 0-2.742858 11.922286c0 9.142857 2.852571 15.762286 8.96 20.809143 6.509714 5.339429 16.676571 8.045714 30.244572 8.045714 13.714286 0 23.917714-2.706286 30.354286-8.045714 5.961143-4.973714 8.850286-11.776 8.850285-20.809143a25.270857 25.270857 0 0 0-2.742857-11.922286 35.035429 35.035429 0 0 0-8.192-10.24 59.611429 59.611429 0 0 0-13.275428-8.667428 101.632 101.632 0 0 0-14.994286-5.851429 108.105143 108.105143 0 0 0-15.323429 5.851429 54.857143 54.857143 0 0 0-13.056 8.557714 36.278857 36.278857 0 0 0-8.118857 10.349714h0.036572z m65.243428-87.734857a20.918857 20.918857 0 0 0 2.194286-9.801143 19.163429 19.163429 0 0 0-6.875429-15.798857c-5.010286-4.242286-13.129143-6.4-24.137143-6.4-10.971429 0-19.090286 2.194286-24.137142 6.4a19.2 19.2 0 0 0-6.838858 15.798857c0 3.803429 0.731429 7.021714 2.194286 9.764572a24.466286 24.466286 0 0 0 6.4 7.789714c2.998857 2.413714 6.656 4.608 10.934857 6.582857 3.730286 1.645714 7.606857 3.108571 11.52 4.315429 4.022857-1.206857 7.936-2.669714 11.556572-4.315429 4.132571-1.938286 7.68-4.096 10.825143-6.582857a24.32 24.32 0 0 0 6.363428-7.753143z m59.611429 75.300571c3.657143 7.862857 5.485714 17.042286 5.485714 27.245715 0 12.873143-2.925714 24.137143-8.557714 33.389714-5.485714 9.033143-12.946286 16.566857-22.198857 22.308571a96.548571 96.548571 0 0 1-30.134858 11.922286c-21.796571 4.754286-44.397714 4.754286-66.194285 0a96.475429 96.475429 0 0 1-29.915429-11.922286 67.035429 67.035429 0 0 1-22.235428-22.345142 63.305143 63.305143 0 0 1-8.521143-33.353143c0-10.130286 1.828571-19.236571 5.449143-27.099429a73.142857 73.142857 0 0 1 13.750857-20.114286c6.144-6.290286 13.165714-11.629714 20.918857-15.835428a86.857143 86.857143 0 0 1-14.994286-13.348572c-9.142857-10.203429-13.824-23.04-13.824-38.180571 0-9.728 2.304-18.797714 6.838857-26.916571a61.805714 61.805714 0 0 1 18.066286-20.187429c7.241143-5.302857 15.981714-9.508571 25.892571-12.434286 9.801143-2.889143 20.48-4.352 31.780572-4.352 11.264 0 21.942857 1.462857 31.707428 4.352 9.874286 2.925714 18.614857 7.094857 25.965715 12.434286 7.606857 5.558857 13.641143 12.324571 18.029714 20.187429 4.534857 8.118857 6.838857 17.188571 6.838857 26.916571 0 15.36-4.681143 28.306286-13.860571 38.4-4.461714 4.937143-9.508571 9.325714-14.957715 13.092571l2.340572 1.28c6.875429 3.876571 13.092571 8.630857 18.541714 14.262858 5.668571 5.851429 10.313143 12.653714 13.787429 20.297142z m-336.128 12.434286a25.526857 25.526857 0 0 0-2.706286 11.922286c0 9.142857 2.852571 15.762286 8.96 20.809143 6.509714 5.339429 16.676571 8.045714 30.244571 8.045714 13.750857 0 23.954286-2.706286 30.317715-8.045714 5.997714-4.937143 8.923429-11.776 8.923428-20.809143a25.526857 25.526857 0 0 0-2.779428-11.958857 35.181714 35.181714 0 0 0-8.155429-10.24 59.428571 59.428571 0 0 0-13.275428-8.667429 101.302857 101.302857 0 0 0-15.030858-5.814857 108.470857 108.470857 0 0 0-15.286857 5.851429c-4.754286 2.194286-9.142857 5.12-13.092571 8.557714a36.571429 36.571429 0 0 0-8.118857 10.349714z m65.28-87.771428a20.406857 20.406857 0 0 0 2.194285-9.764572 19.163429 19.163429 0 0 0-6.875428-15.798857c-5.010286-4.242286-13.129143-6.4-24.100572-6.4-11.008 0-19.126857 2.157714-24.137142 6.363429a19.163429 19.163429 0 0 0-6.838858 15.835428c0 3.730286 0.731429 7.021714 2.194286 9.801143a24.502857 24.502857 0 0 0 6.4 7.789714c3.072 2.450286 6.656 4.571429 10.898286 6.509715 3.730286 1.682286 7.606857 3.145143 11.52 4.388571 4.022857-1.243429 7.936-2.706286 11.593143-4.388571 4.096-1.901714 7.68-4.022857 10.752-6.546286a24.612571 24.612571 0 0 0 6.4-7.753143v-0.036571z m45.824 55.04c5.668571 5.814857 10.313143 12.653714 13.787428 20.297142 3.657143 7.862857 5.485714 17.042286 5.485715 27.245715 0 12.836571-2.925714 24.100571-8.594286 33.389714-5.485714 9.106286-13.092571 16.749714-22.125714 22.308571-8.923429 5.485714-19.017143 9.508571-30.171429 11.922286a155.428571 155.428571 0 0 1-66.194286 0 96.073143 96.073143 0 0 1-29.915428-11.922286 66.742857 66.742857 0 0 1-22.235429-22.381714 63.012571 63.012571 0 0 1-8.521143-33.316571c0-10.24 1.828571-19.382857 5.485715-27.172572a73.142857 73.142857 0 0 1 13.750857-20.041143c6.107429-6.326857 13.165714-11.666286 20.845714-15.835428a88.100571 88.100571 0 0 1-14.921143-13.312c-9.179429-10.24-13.860571-23.113143-13.860571-38.217143 0-9.764571 2.304-18.797714 6.875428-26.953143 4.388571-7.826286 10.422857-14.628571 17.993143-20.114286 7.314286-5.339429 16.054857-9.508571 25.929143-12.470857 9.801143-2.889143 20.48-4.352 31.817143-4.352 11.264 0 21.942857 1.462857 31.707428 4.352 9.910857 2.925714 18.651429 7.131429 25.965715 12.434286 7.533714 5.522286 13.604571 12.324571 18.029714 20.150857 4.534857 8.155429 6.802286 17.188571 6.802286 26.953143 0 15.36-4.644571 28.306286-13.897143 38.436571a86.820571 86.820571 0 0 1-14.921143 13.056l2.340571 1.28c6.802286 3.803429 13.056 8.594286 18.541715 14.262858z m-296.484572-0.841143a34.157714 34.157714 0 0 0-12.288 7.387428 36.388571 36.388571 0 0 0-8.118857 11.995429c-2.011429 4.754286-3.035429 10.349714-3.035428 16.64 0 13.165714 3.145143 22.857143 9.362285 28.818286 6.436571 6.217143 15.396571 9.179429 27.465143 9.179428 5.778286 0 11.154286-0.877714 15.908572-2.633143a33.645714 33.645714 0 0 0 20.260571-18.980571c2.011429-4.754286 3.035429-10.459429 3.035429-17.042286a47.908571 47.908571 0 0 0-2.925715-18.066286 31.012571 31.012571 0 0 0-7.460571-11.227428 29.257143 29.257143 0 0 0-11.190857-6.436572 49.627429 49.627429 0 0 0-31.012572 0.365715z m80.749715-27.904c7.862857 6.802286 14.189714 15.469714 18.834285 25.856 4.644571 10.349714 6.985143 22.637714 6.985143 36.461714s-2.669714 26.258286-7.972571 36.973714c-5.266286 10.605714-12.361143 19.638857-21.101715 26.770286-8.777143 7.094857-18.761143 12.507429-29.513142 15.981714a107.483429 107.483429 0 0 1-33.572572 5.376c-13.897143 0-26.697143-1.901714-38.034286-5.668571a74.678857 74.678857 0 0 1-30.061714-18.578286 83.090286 83.090286 0 0 1-18.761143-31.817143c-4.205714-12.324571-6.326857-27.318857-6.326857-44.507428 0-19.456 2.742857-38.034286 8.155429-55.259429a138.24 138.24 0 0 1 25.307428-47.067428c11.446857-13.860571 26.112-25.234286 43.666286-33.901715 17.444571-8.594286 41.179429-14.848 64-16.384l19.053714 0.256-11.702857 44.763429-6.473143 0.548571a110.445714 110.445714 0 0 0-35.328 8.594286 89.014857 89.014857 0 0 0-25.965714 17.334857c-7.021714 6.838857-12.8 14.848-17.188571 23.771429 10.861714-6.034286 24.173714-9.069714 39.643428-9.069715 10.020571 0 20.041143 1.572571 29.732572 4.681143 9.801143 3.181714 18.761143 8.192 26.624 14.884572z m-266.166858-34.304L146.285714 433.225143 242.468571 402.285714v252.928H190.281143V467.017143l-26.697143 8.265143h0.036571zM512 0C229.229714 0 0 229.266286 0 512c0 282.770286 229.229714 512 512 512s512-229.229714 512-512c0-282.697143-229.229714-512-512-512z" p-id="4062" fill="#f56d05"></path></svg>